<svg xmlns="http://www.w3.org/2000/svg" viewBox="0 0 70 40.56"><defs><style>.cls-1,.cls-2{fill:#2b3740;}.cls-2{font-size:4.42px;font-family:adelia;}</style></defs><g id="Capa_2" data-name="Capa 2"><g id="Capa_1-2" data-name="Capa 1"><path class="cls-1" d="M4.37,37.71v.06l-.18,0s-.07,0-.08.08a.39.39,0,0,0,0,.17v1.58a.44.44,0,0,0,0,.18.11.11,0,0,0,.08.07l.18,0V40H3.28V39.9l.19,0a.13.13,0,0,0,.09-.07.74.74,0,0,0,0-.18V37.89h0L2.69,40H2.63l-1-2.06v1.58a1.44,1.44,0,0,0,0,.24.23.23,0,0,0,.1.12.89.89,0,0,0,.23,0V40H1.29V39.9a.74.74,0,0,0,.19,0,.18.18,0,0,0,.08-.12,1.06,1.06,0,0,0,0-.21V38a.65.65,0,0,0,0-.17.16.16,0,0,0-.08-.08l-.19,0v-.06h.82l.8,1.71-.08,0,.77-1.75h.77Z"/><path class="cls-1" d="M5.53,38.27a.73.73,0,0,1,.51.17.7.7,0,0,1,.18.54H5v-.06H5.8a1.29,1.29,0,0,0,0-.29.51.51,0,0,0-.09-.21.19.19,0,0,0-.17-.08.28.28,0,0,0-.24.14.94.94,0,0,0-.13.46v.11a.31.31,0,0,0,0,.1.8.8,0,0,0,.08.36.49.49,0,0,0,.43.28.57.57,0,0,0,.18,0A.51.51,0,0,0,6,39.68a.5.5,0,0,0,.15-.17l.07,0a.67.67,0,0,1-.13.23.76.76,0,0,1-.24.18A1,1,0,0,1,5.5,40a1,1,0,0,1-.44-.1.68.68,0,0,1-.3-.28,1,1,0,0,1-.11-.47,1,1,0,0,1,.12-.49.69.69,0,0,1,.31-.3A.93.93,0,0,1,5.53,38.27Z"/><path class="cls-1" d="M7.35,38.27a.88.88,0,0,1,.29,0,.39.39,0,0,1,.19.19l0,0a.38.38,0,0,0-.14-.14.45.45,0,0,0-.2,0,.35.35,0,0,0-.32.19,1.13,1.13,0,0,0-.12.59,1.3,1.3,0,0,0,0,.43.46.46,0,0,0,.13.24.34.34,0,0,0,.22.07.36.36,0,0,0,.24-.09.42.42,0,0,0,.12-.27l0,.09a.46.46,0,0,1-.18.29.54.54,0,0,1-.35.11.81.81,0,0,1-.39-.1.61.61,0,0,1-.27-.28,1.19,1.19,0,0,1-.09-.49,1,1,0,0,1,.11-.49.63.63,0,0,1,.3-.28A.82.82,0,0,1,7.35,38.27Zm.88-.8v2.14a.42.42,0,0,0,0,.22.28.28,0,0,0,.2.06V40H8l-.23,0V37.85a.3.3,0,0,0,0-.21.23.23,0,0,0-.2-.07V37.5H8Z"/><path class="cls-1" d="M9.36,38.28v1.38a.25.25,0,0,0,.06.19.3.3,0,0,0,.19,0V40h-1v-.07a.33.33,0,0,0,.2,0,.25.25,0,0,0,.06-.19v-1a.33.33,0,0,0-.06-.21c0-.05-.1-.07-.2-.07v-.07h.49A1.43,1.43,0,0,0,9.36,38.28ZM9.1,37.5a.32.32,0,0,1,.22.07.17.17,0,0,1,.08.16.19.19,0,0,1-.08.17.38.38,0,0,1-.44,0,.21.21,0,0,1-.08-.17.19.19,0,0,1,.08-.16A.32.32,0,0,1,9.1,37.5Z"/><path class="cls-1" d="M10.72,38.27a1.09,1.09,0,0,1,.26,0,.68.68,0,0,1,.2.07.53.53,0,0,1,.14.12.3.3,0,0,1,0,.16.23.23,0,0,1-.08.17.28.28,0,0,1-.18.06.29.29,0,0,1-.19-.06.2.2,0,0,1-.07-.15.2.2,0,0,1,.06-.15.35.35,0,0,1,.16-.08.3.3,0,0,0-.11-.07.37.37,0,0,0-.15,0,.42.42,0,0,0-.2,0,.36.36,0,0,0-.15.15.53.53,0,0,0-.1.24,1,1,0,0,0,0,.32,1.08,1.08,0,0,0,.07.41.44.44,0,0,0,.19.21.44.44,0,0,0,.24.07l.17,0a.56.56,0,0,0,.17-.09.53.53,0,0,0,.16-.17l.07,0a.89.89,0,0,1-.13.23.76.76,0,0,1-.24.18.72.72,0,0,1-.35.08,1,1,0,0,1-.42-.1.76.76,0,0,1-.31-.28,1,1,0,0,1-.11-.48.86.86,0,0,1,.12-.47.71.71,0,0,1,.31-.31A1,1,0,0,1,10.72,38.27Z"/><path class="cls-1" d="M12.31,38.28v1.38a.25.25,0,0,0,.06.19.32.32,0,0,0,.19,0V40h-1v-.07a.32.32,0,0,0,.19,0,.25.25,0,0,0,.06-.19v-1a.33.33,0,0,0-.06-.21.21.21,0,0,0-.19-.07v-.07h.48A1.43,1.43,0,0,0,12.31,38.28Zm-.26-.78a.32.32,0,0,1,.22.07.18.18,0,0,1,.09.16.2.2,0,0,1-.09.17.32.32,0,0,1-.22.07.28.28,0,0,1-.21-.07.2.2,0,0,1-.09-.17.18.18,0,0,1,.09-.16A.28.28,0,0,1,12.05,37.5Z"/><path class="cls-1" d="M14.05,38.27a.81.81,0,0,1,.25,0l.16.09a.42.42,0,0,1,.09.16.88.88,0,0,1,0,.26v.85a.31.31,0,0,0,.05.19.35.35,0,0,0,.2,0V40H13.9v-.07a.27.27,0,0,0,.17,0,.32.32,0,0,0,0-.19v-1a.81.81,0,0,0,0-.16.2.2,0,0,0-.08-.1.25.25,0,0,0-.16,0,.46.46,0,0,0-.21.05.39.39,0,0,0-.15.16.43.43,0,0,0-.05.23v.82a.32.32,0,0,0,0,.19.27.27,0,0,0,.17,0V40h-.93v-.07a.3.3,0,0,0,.19,0,.25.25,0,0,0,.06-.19v-1a.41.41,0,0,0-.05-.21.23.23,0,0,0-.2-.07v-.07h.49a1.6,1.6,0,0,0,.23,0v.32a.53.53,0,0,1,.25-.26A.84.84,0,0,1,14.05,38.27Z"/><path class="cls-1" d="M15.48,40a.59.59,0,0,1-.27,0,.36.36,0,0,1-.16-.14.37.37,0,0,1-.06-.21.33.33,0,0,1,.08-.22.55.55,0,0,1,.19-.14l.24-.09.25-.07a.75.75,0,0,0,.18-.08.14.14,0,0,0,.08-.11v-.24a.25.25,0,0,0,0-.16.19.19,0,0,0-.1-.1.31.31,0,0,0-.17,0l-.16,0a.27.27,0,0,0-.14.08.22.22,0,0,1,.14.08.2.2,0,0,1,.06.14.19.19,0,0,1-.08.16.29.29,0,0,1-.19.06.25.25,0,0,1-.18-.07.25.25,0,0,1-.06-.16.2.2,0,0,1,.05-.15.39.39,0,0,1,.14-.1.67.67,0,0,1,.24-.09,1.48,1.48,0,0,1,.31,0,1.29,1.29,0,0,1,.29,0,.53.53,0,0,1,.21.11.36.36,0,0,1,.12.18,1.84,1.84,0,0,1,0,.26v.88a.27.27,0,0,0,0,.11.09.09,0,0,0,.07,0h.07l.08,0,0,.06-.17.08a.69.69,0,0,1-.22,0,.56.56,0,0,1-.2,0,.2.2,0,0,1-.11-.09.33.33,0,0,1,0-.14.57.57,0,0,1-.22.19A.59.59,0,0,1,15.48,40Zm.23-.18a.32.32,0,0,0,.16,0,.39.39,0,0,0,.14-.12V39a.31.31,0,0,1-.11.08l-.14.08-.15.09a.43.43,0,0,0-.11.12.32.32,0,0,0-.05.18.24.24,0,0,0,.07.19A.29.29,0,0,0,15.71,39.8Z"/><path class="cls-1" d="M18.64,38.27a.77.77,0,0,1,.51.17.7.7,0,0,1,.18.54H18.09v-.06h.81a.9.9,0,0,0,0-.29.51.51,0,0,0-.09-.21.19.19,0,0,0-.17-.08.28.28,0,0,0-.24.14.94.94,0,0,0-.13.46v0s0,.06,0,.09v.1a.8.8,0,0,0,.08.36.48.48,0,0,0,.19.21.55.55,0,0,0,.24.07.51.51,0,0,0,.17,0,.48.48,0,0,0,.18-.08.86.86,0,0,0,.15-.17l.07,0a.89.89,0,0,1-.13.23,1.08,1.08,0,0,1-.24.18,1,1,0,0,1-.35.07,1,1,0,0,1-.44-.1.68.68,0,0,1-.3-.28,1,1,0,0,1-.11-.47,1.07,1.07,0,0,1,.11-.49.77.77,0,0,1,.32-.3A.93.93,0,0,1,18.64,38.27Z"/><path class="cls-1" d="M20.27,38.27a.7.7,0,0,1,.27,0l.16.06c.09.06.14,0,.15-.1h.08a1.77,1.77,0,0,1,0,.22v.34h-.08a.88.88,0,0,0-.07-.23.58.58,0,0,0-.15-.19.44.44,0,0,0-.26-.07.36.36,0,0,0-.19,0,.21.21,0,0,0-.08.17.2.2,0,0,0,.07.16.61.61,0,0,0,.17.14l.22.13a2.29,2.29,0,0,1,.23.16.69.69,0,0,1,.17.17.4.4,0,0,1,.06.22.37.37,0,0,1-.09.25.72.72,0,0,1-.25.16.9.9,0,0,1-.34.06l-.18,0L20,40l-.09,0a.11.11,0,0,0-.08,0s0,0-.06,0a.19.19,0,0,0,0,.09h-.08a2.45,2.45,0,0,1,0-.25v-.38h.08a1.19,1.19,0,0,0,.08.3.49.49,0,0,0,.16.21.42.42,0,0,0,.26.08.35.35,0,0,0,.14,0,.2.2,0,0,0,.1-.08.23.23,0,0,0,.05-.15.3.3,0,0,0-.11-.23l-.28-.2-.23-.15a.59.59,0,0,1-.18-.17.37.37,0,0,1-.07-.23.32.32,0,0,1,.09-.24.49.49,0,0,1,.22-.14A.93.93,0,0,1,20.27,38.27Z"/><path class="cls-1" d="M22,37.79v.53h.47v.06H22v1.27a.22.22,0,0,0,.05.16.2.2,0,0,0,.14,0,.24.24,0,0,0,.15-.06.44.44,0,0,0,.13-.18l.06,0a.52.52,0,0,1-.17.26A.49.49,0,0,1,22,40a.66.66,0,0,1-.21,0,.71.71,0,0,1-.15-.08.45.45,0,0,1-.11-.17,1.91,1.91,0,0,1,0-.28V38.38h-.33v-.06h.33v-.45l.24,0A.79.79,0,0,0,22,37.79Z"/><path class="cls-1" d="M23.48,38.27a.73.73,0,0,1,.51.17.7.7,0,0,1,.18.54H22.93v-.06h.82a1.29,1.29,0,0,0,0-.29.51.51,0,0,0-.09-.21.19.19,0,0,0-.17-.08.28.28,0,0,0-.24.14.94.94,0,0,0-.13.46v.11a.31.31,0,0,0,0,.1.8.8,0,0,0,.08.36.49.49,0,0,0,.43.28.57.57,0,0,0,.18,0,.51.51,0,0,0,.17-.08.5.5,0,0,0,.15-.17l.07,0a.67.67,0,0,1-.13.23.76.76,0,0,1-.24.18,1,1,0,0,1-.35.07,1,1,0,0,1-.44-.1.68.68,0,0,1-.3-.28,1,1,0,0,1-.11-.47,1,1,0,0,1,.12-.49.75.75,0,0,1,.31-.3A.93.93,0,0,1,23.48,38.27Zm.39-.91a.2.2,0,0,1,.06.11.22.22,0,0,1-.06.13.53.53,0,0,1-.14.11l-.19.14-.28.2,0,0a1.9,1.9,0,0,0,.17-.28l.1-.19a.56.56,0,0,1,.1-.15.23.23,0,0,1,.14-.07A.17.17,0,0,1,23.87,37.36Z"/><path class="cls-1" d="M25.11,37.79v.53h.47v.06h-.47v1.27a.22.22,0,0,0,.05.16.17.17,0,0,0,.13,0,.25.25,0,0,0,.16-.06.36.36,0,0,0,.12-.18l.07,0a.59.59,0,0,1-.17.26.49.49,0,0,1-.33.11.66.66,0,0,1-.21,0,.53.53,0,0,1-.15-.08.45.45,0,0,1-.11-.17,1.1,1.1,0,0,1,0-.28V38.38h-.33v-.06h.33v-.45l.24,0A.79.79,0,0,0,25.11,37.79Z"/><path class="cls-1" d="M26.43,38.28v1.38a.26.26,0,0,0,.05.19.33.33,0,0,0,.2,0V40h-1v-.07a.3.3,0,0,0,.19,0,.25.25,0,0,0,.06-.19v-1a.41.41,0,0,0-.05-.21.23.23,0,0,0-.2-.07v-.07h.49A1.6,1.6,0,0,0,26.43,38.28Zm-.26-.78a.28.28,0,0,1,.21.07.18.18,0,0,1,.09.16.2.2,0,0,1-.09.17.28.28,0,0,1-.21.07A.32.32,0,0,1,26,37.9a.19.19,0,0,1-.08-.17.17.17,0,0,1,.08-.16A.32.32,0,0,1,26.17,37.5Z"/><path class="cls-1" d="M27.79,38.27a1,1,0,0,1,.25,0,.52.52,0,0,1,.2.07.33.33,0,0,1,.14.12.24.24,0,0,1,.05.16.22.22,0,0,1-.07.17.28.28,0,0,1-.18.06.29.29,0,0,1-.19-.06.17.17,0,0,1-.07-.15.2.2,0,0,1,.06-.15.28.28,0,0,1,.15-.08.26.26,0,0,0-.1-.07.41.41,0,0,0-.16,0,.46.46,0,0,0-.2,0,.43.43,0,0,0-.15.15.91.91,0,0,0-.1.24,1.51,1.51,0,0,0,0,.32.92.92,0,0,0,.07.41.44.44,0,0,0,.19.21.4.4,0,0,0,.24.07.45.45,0,0,0,.16,0,.76.76,0,0,0,.18-.09.53.53,0,0,0,.16-.17l.07,0a.78.78,0,0,1-.37.41.72.72,0,0,1-.35.08,1,1,0,0,1-.43-.1.73.73,0,0,1-.3-.28.9.9,0,0,1-.11-.48,1,1,0,0,1,.11-.47.74.74,0,0,1,.32-.31A1,1,0,0,1,27.79,38.27Z"/><path class="cls-1" d="M29.17,40a.53.53,0,0,1-.26,0,.34.34,0,0,1-.17-.14.37.37,0,0,1-.06-.21.33.33,0,0,1,.08-.22.55.55,0,0,1,.19-.14l.24-.09.25-.07a.75.75,0,0,0,.18-.08.14.14,0,0,0,.08-.11v-.24a.25.25,0,0,0,0-.16.19.19,0,0,0-.1-.1.31.31,0,0,0-.17,0l-.16,0a.27.27,0,0,0-.14.08.28.28,0,0,1,.15.08.24.24,0,0,1,.05.14.19.19,0,0,1-.08.16.29.29,0,0,1-.19.06.25.25,0,0,1-.18-.07.25.25,0,0,1-.06-.16.2.2,0,0,1,0-.15.39.39,0,0,1,.14-.1.67.67,0,0,1,.24-.09,1.48,1.48,0,0,1,.31,0,1.29,1.29,0,0,1,.29,0,.53.53,0,0,1,.21.11.36.36,0,0,1,.12.18,1.84,1.84,0,0,1,0,.26v.88a.27.27,0,0,0,0,.11.09.09,0,0,0,.07,0h.07l.08,0,0,.06-.17.08a.66.66,0,0,1-.21,0,.58.58,0,0,1-.21,0,.2.2,0,0,1-.11-.09.33.33,0,0,1,0-.14.57.57,0,0,1-.22.19A.59.59,0,0,1,29.17,40Zm.23-.18a.32.32,0,0,0,.16,0,.39.39,0,0,0,.14-.12V39a.31.31,0,0,1-.11.08l-.14.08-.15.09a.43.43,0,0,0-.11.12.32.32,0,0,0-.05.18.24.24,0,0,0,.07.19A.29.29,0,0,0,29.4,39.8Z"/><path class="cls-1" d="M33.07,38.31v.07a.24.24,0,0,0-.13.07.41.41,0,0,0-.12.19l-.55,1.29-.11.15-.76-1.52a.4.4,0,0,0-.13-.15l-.11,0v-.07l.23,0h.49l.24,0v.07H32a.13.13,0,0,0-.09,0,.24.24,0,0,0,0,.15l.46,1,0,0,.33-.76a.49.49,0,0,0,0-.24.17.17,0,0,0-.08-.14.36.36,0,0,0-.19-.06v-.07h.62Zm-.8,1.62-.14.32a.46.46,0,0,1-.07.14.24.24,0,0,1-.08.09.35.35,0,0,1-.14.06l-.17,0a.47.47,0,0,1-.17,0,.27.27,0,0,1-.13-.07.17.17,0,0,1-.05-.14.16.16,0,0,1,.07-.14.27.27,0,0,1,.19,0,.29.29,0,0,1,.17,0,.17.17,0,0,1,0,.25.26.26,0,0,1-.11.07h.06a.33.33,0,0,0,.19-.06.47.47,0,0,0,.14-.19l.13-.32Z"/><path class="cls-1" d="M35.27,38.27a.88.88,0,0,1,.24,0l.15.09a.32.32,0,0,1,.09.16,1,1,0,0,1,0,.26v.85a.31.31,0,0,0,0,.19.3.3,0,0,0,.18,0V40h-.9v-.07a.22.22,0,0,0,.16,0,.32.32,0,0,0,0-.19v-1a.81.81,0,0,0,0-.16.17.17,0,0,0-.06-.1.22.22,0,0,0-.15,0,.46.46,0,0,0-.21.05.36.36,0,0,0-.14.16.44.44,0,0,0-.06.23v.82a.31.31,0,0,0,0,.19.21.21,0,0,0,.15,0V40H34v-.07a.32.32,0,0,0,.19,0,.25.25,0,0,0,.06-.19v-1a.41.41,0,0,0,0-.21.24.24,0,0,0-.2-.07v-.07h.49a1.46,1.46,0,0,0,.22,0v.32a.6.6,0,0,1,.25-.25A.66.66,0,0,1,35.27,38.27Zm1.11,0a.88.88,0,0,1,.24,0l.15.09a.42.42,0,0,1,.09.16,1,1,0,0,1,0,.26v.85a.31.31,0,0,0,0,.19.35.35,0,0,0,.2,0V40h-.92v-.07a.22.22,0,0,0,.16,0,.32.32,0,0,0,0-.19v-1a.81.81,0,0,0,0-.16.18.18,0,0,0-.07-.1.25.25,0,0,0-.16,0,.36.36,0,0,0-.2.06.46.46,0,0,0-.15.16.79.79,0,0,0-.06.22v-.23a.53.53,0,0,1,.26-.27A.86.86,0,0,1,36.38,38.27Z"/><path class="cls-1" d="M38,38.28v1.38a.31.31,0,0,0,0,.19.35.35,0,0,0,.2,0V40h-1v-.07a.35.35,0,0,0,.2,0,.31.31,0,0,0,.05-.19v-1a.41.41,0,0,0-.05-.21.23.23,0,0,0-.2-.07v-.07h.49A1.6,1.6,0,0,0,38,38.28Zm-.26-.78a.32.32,0,0,1,.22.07.19.19,0,0,1,.08.16.21.21,0,0,1-.08.17.38.38,0,0,1-.44,0,.19.19,0,0,1-.08-.17.17.17,0,0,1,.08-.16A.32.32,0,0,1,37.74,37.5Z"/><path class="cls-1" d="M39.36,38.27a1,1,0,0,1,.25,0,.52.52,0,0,1,.2.07.33.33,0,0,1,.14.12.25.25,0,0,1,.06.16.23.23,0,0,1-.08.17.28.28,0,0,1-.18.06.29.29,0,0,1-.19-.06.17.17,0,0,1-.07-.15.2.2,0,0,1,.06-.15.28.28,0,0,1,.15-.08.2.2,0,0,0-.1-.07l-.15,0a.42.42,0,0,0-.2,0,.45.45,0,0,0-.16.15.91.91,0,0,0-.1.24,1.51,1.51,0,0,0,0,.32.92.92,0,0,0,.07.41.44.44,0,0,0,.19.21.4.4,0,0,0,.24.07l.17,0a.7.7,0,0,0,.17-.09A.53.53,0,0,0,40,39.5l.07,0a.89.89,0,0,1-.13.23.76.76,0,0,1-.24.18.72.72,0,0,1-.35.08,1,1,0,0,1-.42-.1.76.76,0,0,1-.31-.28,1,1,0,0,1-.11-.48,1,1,0,0,1,.11-.47.79.79,0,0,1,.32-.31A1,1,0,0,1,39.36,38.27Z"/><path class="cls-1" d="M41.46,38.27a.38.38,0,0,1,.19,0,.29.29,0,0,1,.11.11.28.28,0,0,1,0,.13.25.25,0,0,1-.08.18.34.34,0,0,1-.37,0,.17.17,0,0,1-.07-.14.21.21,0,0,1,0-.13.48.48,0,0,1,.11-.09h-.1a.31.31,0,0,0-.16.06.43.43,0,0,0-.12.11.37.37,0,0,0-.08.15.5.5,0,0,0,0,.16v.78q0,.16.09.21a.5.5,0,0,0,.27,0V40H40.23v-.07a.35.35,0,0,0,.2,0,.31.31,0,0,0,0-.19v-1a.33.33,0,0,0,0-.21c0-.05-.1-.07-.2-.07v-.07h.49a1.6,1.6,0,0,0,.23,0v.33a1.63,1.63,0,0,1,.11-.17.57.57,0,0,1,.18-.12A.54.54,0,0,1,41.46,38.27Z"/><path class="cls-1" d="M42.86,38.27a1.06,1.06,0,0,1,.45.09.72.72,0,0,1,.32.28,1.19,1.19,0,0,1,0,1,.72.72,0,0,1-.32.28,1.17,1.17,0,0,1-.9,0,.72.72,0,0,1-.32-.28,1.19,1.19,0,0,1,0-1,.72.72,0,0,1,.32-.28A1.06,1.06,0,0,1,42.86,38.27Zm0,.06a.33.33,0,0,0-.28.19,1.34,1.34,0,0,0-.11.62,1.3,1.3,0,0,0,.11.61.3.3,0,0,0,.56,0,1.18,1.18,0,0,0,.11-.61,1.22,1.22,0,0,0-.11-.62A.33.33,0,0,0,42.86,38.33Z"/><path class="cls-1" d="M44.68,38.28v1.95a.2.2,0,0,0,.09.19.55.55,0,0,0,.25,0v.07H44v-.07a.26.26,0,0,0,.18,0s.05-.09.05-.17v-1.6a.33.33,0,0,0-.05-.21.25.25,0,0,0-.2-.07v-.06h.49Zm.58,0a.67.67,0,0,1,.34.09.64.64,0,0,1,.24.27,1.08,1.08,0,0,1,.08.44,1.52,1.52,0,0,1-.05.38.81.81,0,0,1-.17.3.83.83,0,0,1-.26.19,1,1,0,0,1-.36.07A.61.61,0,0,1,44.8,40a.35.35,0,0,1-.18-.13l0,0a.32.32,0,0,0,.12.11.36.36,0,0,0,.19,0,.39.39,0,0,0,.28-.1.61.61,0,0,0,.14-.28,1.76,1.76,0,0,0,0-.42,1.56,1.56,0,0,0,0-.42.34.34,0,0,0-.12-.23.27.27,0,0,0-.19-.08.4.4,0,0,0-.27.11.48.48,0,0,0-.15.3l0-.09a.59.59,0,0,1,.22-.33A.72.72,0,0,1,45.26,38.27Z"/><path class="cls-1" d="M46.89,38.28v1.38a.26.26,0,0,0,0,.19.33.33,0,0,0,.2,0V40h-1v-.07a.3.3,0,0,0,.19,0,.25.25,0,0,0,.06-.19v-1a.41.41,0,0,0-.05-.21.23.23,0,0,0-.2-.07v-.07h.49A1.6,1.6,0,0,0,46.89,38.28Zm-.26-.78a.28.28,0,0,1,.21.07.18.18,0,0,1,.09.16.2.2,0,0,1-.09.17.28.28,0,0,1-.21.07.32.32,0,0,1-.22-.07.19.19,0,0,1-.08-.17.17.17,0,0,1,.08-.16A.32.32,0,0,1,46.63,37.5Z"/><path class="cls-1" d="M48,40.56a1.64,1.64,0,0,1-.4,0,.66.66,0,0,1-.28-.1.19.19,0,0,1-.1-.17.21.21,0,0,1,.1-.18.7.7,0,0,1,.3-.13l0,.06a.24.24,0,0,0-.11.09.28.28,0,0,0,0,.13.22.22,0,0,0,.14.21.87.87,0,0,0,.39.08,1.55,1.55,0,0,0,.31,0,.66.66,0,0,0,.22-.12.25.25,0,0,0,.09-.2.19.19,0,0,0-.09-.16.5.5,0,0,0-.33-.07H48a1,1,0,0,1-.25,0,.37.37,0,0,1-.18-.08.21.21,0,0,1-.06-.16.26.26,0,0,1,.11-.22,1.36,1.36,0,0,1,.37-.2l0,0-.16.09a.13.13,0,0,0-.07.12c0,.07,0,.1.16.1h.42a1.76,1.76,0,0,1,.34,0,.63.63,0,0,1,.23.13.32.32,0,0,1,.09.24.48.48,0,0,1-.11.29,1,1,0,0,1-.35.21A1.89,1.89,0,0,1,48,40.56Zm0-1.28a1,1,0,0,1-.36-.05.51.51,0,0,1-.25-.17.43.43,0,0,1-.1-.28.44.44,0,0,1,.1-.29.58.58,0,0,1,.25-.17,1.32,1.32,0,0,1,.72,0,.58.58,0,0,1,.25.17.44.44,0,0,1,.09.29.43.43,0,0,1-.09.28.51.51,0,0,1-.25.17A1,1,0,0,1,48,39.28Zm0-.05a.21.21,0,0,0,.17-.1.61.61,0,0,0,.07-.35.65.65,0,0,0-.07-.36.2.2,0,0,0-.17-.09.21.21,0,0,0-.18.09.78.78,0,0,0-.06.36.73.73,0,0,0,.06.35A.22.22,0,0,0,48,39.23Zm.56-.69-.08,0a.46.46,0,0,1,.19-.2.42.42,0,0,1,.26-.08.23.23,0,0,1,.17,0,.17.17,0,0,1,.06.14.16.16,0,0,1-.06.14.18.18,0,0,1-.24,0,.11.11,0,0,1-.06-.11.29.29,0,0,1,.06-.2h0a.68.68,0,0,0-.21.11A.44.44,0,0,0,48.6,38.54Z"/><path class="cls-1" d="M50.61,38.27a.78.78,0,0,1,.24,0l.16.09a.42.42,0,0,1,.09.16,1.84,1.84,0,0,1,0,.26v.85a.25.25,0,0,0,.06.19.26.26,0,0,0,.18,0V40h-.9v-.07a.21.21,0,0,0,.15,0,.31.31,0,0,0,0-.19v-1a.78.78,0,0,0,0-.16.17.17,0,0,0-.06-.1.21.21,0,0,0-.15,0,.46.46,0,0,0-.2.05.46.46,0,0,0-.15.16.56.56,0,0,0,0,.23v.82a.32.32,0,0,0,0,.19.22.22,0,0,0,.16,0V40h-.92v-.07a.35.35,0,0,0,.2,0,.26.26,0,0,0,.05-.19v-1a.33.33,0,0,0-.05-.21c0-.05-.1-.07-.2-.07v-.07h.49a1.6,1.6,0,0,0,.23,0v.32a.51.51,0,0,1,.25-.25A.62.62,0,0,1,50.61,38.27Zm1.11,0a.78.78,0,0,1,.24,0,.49.49,0,0,1,.15.09.34.34,0,0,1,.1.16,1.84,1.84,0,0,1,0,.26v.85a.25.25,0,0,0,.06.19.32.32,0,0,0,.19,0V40h-.91v-.07a.21.21,0,0,0,.15,0,.31.31,0,0,0,.05-.19v-1a.78.78,0,0,0,0-.16.14.14,0,0,0-.07-.1.21.21,0,0,0-.15,0,.37.37,0,0,0-.21.06.36.36,0,0,0-.14.16.43.43,0,0,0-.06.22l0-.23a.59.59,0,0,1,.27-.27A.84.84,0,0,1,51.72,38.27Z"/><path class="cls-1" d="M53.56,38.27a.72.72,0,0,1,.5.17.67.67,0,0,1,.19.54H53v-.06h.82a.9.9,0,0,0,0-.29.51.51,0,0,0-.09-.21.2.2,0,0,0-.17-.08.29.29,0,0,0-.25.14,1,1,0,0,0-.12.46v0a.28.28,0,0,0,0,.09v.1a.8.8,0,0,0,.07.36.65.65,0,0,0,.19.21.55.55,0,0,0,.25.07l.17,0a.38.38,0,0,0,.17-.08.66.66,0,0,0,.16-.17l.07,0a.71.71,0,0,1-.14.23.76.76,0,0,1-.24.18.89.89,0,0,1-.34.07,1.06,1.06,0,0,1-.45-.1.71.71,0,0,1-.29-.28.88.88,0,0,1-.11-.47,1.07,1.07,0,0,1,.11-.49.81.81,0,0,1,.31-.3A1,1,0,0,1,53.56,38.27Z"/><path class="cls-1" d="M55.81,38.27a.85.85,0,0,1,.25,0l.15.09a.34.34,0,0,1,.1.16.94.94,0,0,1,0,.26v.85a.25.25,0,0,0,.06.19.32.32,0,0,0,.19,0V40h-.92v-.07a.24.24,0,0,0,.16,0,.31.31,0,0,0,0-.19v-1a.78.78,0,0,0,0-.16.18.18,0,0,0-.07-.1.25.25,0,0,0-.16,0,.54.54,0,0,0-.22.05.36.36,0,0,0-.14.16.44.44,0,0,0-.06.23v.82a.31.31,0,0,0,0,.19.25.25,0,0,0,.17,0V40h-.93v-.07a.32.32,0,0,0,.19,0,.25.25,0,0,0,.06-.19v-1a.41.41,0,0,0-.05-.21.24.24,0,0,0-.2-.07v-.07H55a1.46,1.46,0,0,0,.22,0v.32a.55.55,0,0,1,.26-.26A.81.81,0,0,1,55.81,38.27Z"/><path class="cls-1" d="M57.43,37.79v.53h.47v.06h-.47v1.27a.22.22,0,0,0,0,.16.2.2,0,0,0,.14,0,.2.2,0,0,0,.15-.06.44.44,0,0,0,.13-.18l.07,0a.61.61,0,0,1-.18.26.44.44,0,0,1-.32.11.58.58,0,0,1-.21,0,.53.53,0,0,1-.15-.08.36.36,0,0,1-.11-.17,1,1,0,0,1,0-.28V38.38h-.32v-.06H57v-.45l.25,0A.9.9,0,0,0,57.43,37.79Z"/><path class="cls-1" d="M58.54,40a.54.54,0,0,1-.27,0,.34.34,0,0,1-.17-.14.46.46,0,0,1-.05-.21.32.32,0,0,1,.07-.22.55.55,0,0,1,.19-.14l.25-.09.24-.07A.68.68,0,0,0,59,39a.13.13,0,0,0,.07-.11v-.24a.35.35,0,0,0,0-.16.21.21,0,0,0-.11-.1.29.29,0,0,0-.17,0l-.16,0a.32.32,0,0,0-.14.08.28.28,0,0,1,.15.08.24.24,0,0,1,0,.14.19.19,0,0,1-.07.16.31.31,0,0,1-.19.06.27.27,0,0,1-.19-.07.25.25,0,0,1,0-.31.5.5,0,0,1,.14-.1.85.85,0,0,1,.24-.09,1.55,1.55,0,0,1,.31,0,1.23,1.23,0,0,1,.29,0,.57.57,0,0,1,.22.11.42.42,0,0,1,.11.18,1,1,0,0,1,0,.26v.88c0,.05,0,.09,0,.11a.08.08,0,0,0,.07,0h.07l.07,0,0,.06-.17.08a.66.66,0,0,1-.21,0,.58.58,0,0,1-.21,0,.24.24,0,0,1-.11-.09.57.57,0,0,1,0-.14.55.55,0,0,1-.21.19A.62.62,0,0,1,58.54,40Zm.22-.18a.29.29,0,0,0,.16,0,.39.39,0,0,0,.14-.12V39a.27.27,0,0,1-.1.08l-.15.08a.42.42,0,0,0-.14.09.34.34,0,0,0-.12.12.32.32,0,0,0,0,.18.27.27,0,0,0,.07.19A.29.29,0,0,0,58.76,39.8Z"/><path class="cls-1" d="M60.85,38.27a1,1,0,0,1,.25,0,.65.65,0,0,1,.21.07.53.53,0,0,1,.14.12.3.3,0,0,1,0,.16.23.23,0,0,1-.08.17.28.28,0,0,1-.18.06.29.29,0,0,1-.19-.06.2.2,0,0,1-.07-.15.2.2,0,0,1,.06-.15.37.37,0,0,1,.15-.08.2.2,0,0,0-.1-.07l-.15,0a.42.42,0,0,0-.2,0,.45.45,0,0,0-.16.15.67.67,0,0,0-.09.24,1,1,0,0,0,0,.32.92.92,0,0,0,.07.41.44.44,0,0,0,.19.21.42.42,0,0,0,.24.07l.17,0a.7.7,0,0,0,.17-.09.53.53,0,0,0,.16-.17l.07,0a.89.89,0,0,1-.13.23.76.76,0,0,1-.24.18.72.72,0,0,1-.35.08,1,1,0,0,1-.42-.1.76.76,0,0,1-.31-.28,1,1,0,0,1-.11-.48,1,1,0,0,1,.11-.47.79.79,0,0,1,.32-.31A1,1,0,0,1,60.85,38.27Z"/><path class="cls-1" d="M62.44,38.28v1.38a.25.25,0,0,0,.06.19.32.32,0,0,0,.19,0V40h-1v-.07a.32.32,0,0,0,.19,0,.25.25,0,0,0,.06-.19v-1a.33.33,0,0,0-.06-.21.21.21,0,0,0-.19-.07v-.07h.48A1.43,1.43,0,0,0,62.44,38.28Zm-.26-.78a.32.32,0,0,1,.22.07.17.17,0,0,1,.08.16.19.19,0,0,1-.08.17.32.32,0,0,1-.22.07A.28.28,0,0,1,62,37.9a.2.2,0,0,1-.09-.17.18.18,0,0,1,.09-.16A.28.28,0,0,1,62.18,37.5Z"/><path class="cls-1" d="M63.8,38.27a1.06,1.06,0,0,1,.45.09.7.7,0,0,1,.31.28,1.1,1.1,0,0,1,0,1,.7.7,0,0,1-.31.28,1.06,1.06,0,0,1-.45.09,1.14,1.14,0,0,1-.46-.09.7.7,0,0,1-.31-.28,1.19,1.19,0,0,1,0-1,.7.7,0,0,1,.31-.28A1.14,1.14,0,0,1,63.8,38.27Zm0,.06a.35.35,0,0,0-.29.19,1.37,1.37,0,0,0-.1.62,1.32,1.32,0,0,0,.1.61.31.31,0,0,0,.57,0,1.3,1.3,0,0,0,.11-.61,1.34,1.34,0,0,0-.11-.62A.35.35,0,0,0,63.8,38.33Zm.4-1a.13.13,0,0,1,.06.11.27.27,0,0,1-.05.13l-.14.11-.2.14-.27.2,0,0a1.73,1.73,0,0,0,.16-.28,1.82,1.82,0,0,0,.1-.19.56.56,0,0,1,.1-.15.27.27,0,0,1,.14-.07A.17.17,0,0,1,64.2,37.36Z"/><path class="cls-1" d="M66.24,38.27a.81.81,0,0,1,.25,0l.16.09a.42.42,0,0,1,.09.16.88.88,0,0,1,0,.26v.85a.31.31,0,0,0,0,.19.35.35,0,0,0,.2,0V40h-.93v-.07a.22.22,0,0,0,.16,0,.26.26,0,0,0,0-.19v-1a.41.41,0,0,0,0-.16.14.14,0,0,0-.07-.1.25.25,0,0,0-.16,0,.46.46,0,0,0-.21.05.33.33,0,0,0-.15.16.43.43,0,0,0,0,.23v.82a.32.32,0,0,0,0,.19.27.27,0,0,0,.17,0V40h-.93v-.07a.3.3,0,0,0,.19,0,.25.25,0,0,0,.06-.19v-1a.41.41,0,0,0,0-.21.23.23,0,0,0-.2-.07v-.07h.49a1.6,1.6,0,0,0,.23,0v.32a.53.53,0,0,1,.25-.26A.84.84,0,0,1,66.24,38.27Z"/><text class="cls-2" transform="translate(0 31.43) scale(1.16 1)">Dra Jenny Sarmiento </text><path class="cls-1" d="M44.38,8.28a4.19,4.19,0,0,0-2.65-1.94,4.07,4.07,0,0,0-1.32,0L39,6.51a.65.65,0,0,0,.21-.18,1.71,1.71,0,0,0,.17-1.88,3.21,3.21,0,0,0-.81-.85l0-.18a2,2,0,0,0-.06-.23,4.32,4.32,0,0,0-.78-1.54,4.57,4.57,0,0,0-2.2-1.5,4.43,4.43,0,0,0-2.68.12,4.19,4.19,0,0,0-1.44.89A4.45,4.45,0,0,0,30.17,3a5.21,5.21,0,0,0,0,3.13,6,6,0,0,0,1.79,2.88,2.11,2.11,0,0,1-.78.5,4.13,4.13,0,0,1-1.61.13,2.1,2.1,0,0,1-.42-.12A1.41,1.41,0,0,0,29.35,9a1.33,1.33,0,0,0-.05-.61,2.11,2.11,0,0,0-.76-.93,2.26,2.26,0,0,0-.93-.35A1.53,1.53,0,0,1,28.18,6a1.28,1.28,0,0,1,1.39-.1.8.8,0,0,1,.35.7.55.55,0,0,1-.35.46A.4.4,0,0,1,29.15,7a.33.33,0,0,1-.06-.29.21.21,0,0,1,.12-.1.17.17,0,0,1,.2.07c.05.06,0,.13.05.13s.09-.12.05-.22a.22.22,0,0,0-.12-.13.33.33,0,0,0-.3,0,.3.3,0,0,0-.13.11.54.54,0,0,0-.05.45.58.58,0,0,0,.14.22.62.62,0,0,0,.45.17A.78.78,0,0,0,30.07,7a1,1,0,0,0,.09-.76.92.92,0,0,0-.24-.46,1.07,1.07,0,0,0-.47-.27,2.77,2.77,0,0,0-.5-.1,1.83,1.83,0,0,0-1,.26,2.56,2.56,0,0,0-.41.33,2,2,0,0,0-.34.42,2.32,2.32,0,0,0-.31.83,3.79,3.79,0,0,0-1.59.87A4.23,4.23,0,0,0,24.44,13a3.85,3.85,0,0,0,1.36,1.47,4.92,4.92,0,0,0,3.73.46h0a1.17,1.17,0,0,0-.42.57,1.82,1.82,0,0,0-.12.65,1.74,1.74,0,0,0,.12.68,2.21,2.21,0,0,0,.37.57l1.16.66L30,17.65a4.36,4.36,0,0,0,.18,1.09A4.18,4.18,0,0,0,31,20.3a4.27,4.27,0,0,0,1.83,1.27,4.37,4.37,0,0,0,2.63.1A4.59,4.59,0,0,0,38,19.8a5.54,5.54,0,0,0,.87-2.8,6.34,6.34,0,0,0,0-1.51l0,0a1.14,1.14,0,0,0,.52.38,2,2,0,0,0,.59.11,1.63,1.63,0,0,0,.62-.12,1.77,1.77,0,0,0,.52-.33l.21-.22a1.24,1.24,0,0,0,.18-.25,1.35,1.35,0,0,0,.22-.59,1.44,1.44,0,0,0,0-.32,4.1,4.1,0,0,0,1.34-.5,4.33,4.33,0,0,0,1.92-2.95A4,4,0,0,0,44.38,8.28ZM32.29,2a3.1,3.1,0,0,1,4.36-.32,2.94,2.94,0,0,1,.78,1,2.63,2.63,0,0,1,.22.74h-.13a3,3,0,0,0-1.22.2c-1.08.44-2.13,2.45-3.22,4a5.32,5.32,0,0,1-1.66-3A3.56,3.56,0,0,1,32.29,2Zm.16,8.14a2.35,2.35,0,0,0,.32-.23c.45.47,1,1,1.54,1.56.4.39.75.73,1.08,1.07a5.27,5.27,0,0,0-.5.55,4.43,4.43,0,0,0-.77,1.56,4,4,0,0,0-.17-1l-.09-.29c0-.09-.07-.19-.11-.29l-.12-.29-.15-.27a4.81,4.81,0,0,0-1.74-1.73l-.45-.22.14,0A3.53,3.53,0,0,0,32.45,10.16ZM29,8.41a1.28,1.28,0,0,1,.07,1.12A2.46,2.46,0,0,1,27.73,8.2a2.25,2.25,0,0,1-.11-.48A4.18,4.18,0,0,1,28,7.8,1.62,1.62,0,0,1,29,8.41Zm1,8.66a.35.35,0,0,1-.16-.06,1.32,1.32,0,0,1-.1-1.81.77.77,0,0,1,.93,0,.42.42,0,0,1,.18.37.38.38,0,0,1-.41.27c-.09,0-.22-.09-.23-.21a.21.21,0,0,1,.1-.17c.09-.05.2,0,.2,0a.27.27,0,0,0-.28-.13.31.31,0,0,0-.22.3.34.34,0,0,0,.09.24.53.53,0,0,0,.36.18.56.56,0,0,0,.42-.14.51.51,0,0,0,.19-.3.76.76,0,0,0-.24-.66.94.94,0,0,0-.64-.21,1.66,1.66,0,0,0-.32,0l-1.1-.09a3.84,3.84,0,0,1-1.59-.47A4,4,0,0,1,25.85,13a3.68,3.68,0,0,1-.74-1.58,3.89,3.89,0,0,1,0-1.58,2.93,2.93,0,0,1,.26-.76,2.28,2.28,0,0,1,.53-.71,2.18,2.18,0,0,1,1-.56,3,3,0,0,0,.67,1.59,3.22,3.22,0,0,0,.77.73,3.6,3.6,0,0,0,2,.58,3.94,3.94,0,0,0,.5,0,3.73,3.73,0,0,1,.7.4,4.37,4.37,0,0,1,.85.76,4.54,4.54,0,0,1,.63.94,4.62,4.62,0,0,1,.39,1.06,3.4,3.4,0,0,1,.11,1.09,2.83,2.83,0,0,1-.91,1.89,2.56,2.56,0,0,1-.92.54,2.15,2.15,0,0,1-.57.14,1.43,1.43,0,0,1,2.06-1.39c.78.34,1,1.27,1.06,1.24A2,2,0,0,0,32,15.4a2.2,2.2,0,0,0-1.37.8C30.36,16.59,30.25,17.07,30,17.07Zm7.33,1.16A3.76,3.76,0,0,1,37,19.37a2.72,2.72,0,0,1-.74.88,3.36,3.36,0,0,1-2.33.64,3.11,3.11,0,0,1-1.2-.33,2.77,2.77,0,0,1-.94-.83,3.07,3.07,0,0,1-.52-1.18,2.65,2.65,0,0,1-.07-.48,3.28,3.28,0,0,0,3-3A5.23,5.23,0,0,1,35,13.57a4.55,4.55,0,0,1,.67-.68,7.19,7.19,0,0,1,1,1.37A6.78,6.78,0,0,1,37.42,17,5.29,5.29,0,0,1,37.33,18.23ZM41,14.85a1.07,1.07,0,0,1-.13.19l-.16.18a1.24,1.24,0,0,1-.82.37.93.93,0,0,1-.83-.28.74.74,0,0,1,0-.82.42.42,0,0,1,.32-.19c.13,0,.28.12.27.25a.2.2,0,0,1-.19.17c-.1,0-.14-.12-.16-.11a.23.23,0,0,0,.11.23.3.3,0,0,0,.36-.1.37.37,0,0,0,.08-.28c0-.26-.36-.37-.37-.37a.68.68,0,0,0-.41,0,.57.57,0,0,0-.24.21.82.82,0,0,0-.18.46,8.63,8.63,0,0,0-.28-.86,8.36,8.36,0,0,0-.73-1.37L37.26,12a5.41,5.41,0,0,1,.56-.12,3.75,3.75,0,0,1,1.7.16,1.72,1.72,0,0,0-.05.26,1.43,1.43,0,0,0,0,.52.13.13,0,0,0,0,.05,2.41,2.41,0,0,0,.71,1,2.25,2.25,0,0,0,.95.35.76.76,0,0,1,0,.15A1.28,1.28,0,0,1,41,14.85ZM39.6,12.11a2.47,2.47,0,0,1,.94.54,1.56,1.56,0,0,1,.15.18l.14.21.05.1.06.12a1,1,0,0,1,.09.22,1.39,1.39,0,0,1,.06.19,2.07,2.07,0,0,1-.37-.08,1.57,1.57,0,0,1-1-.6A1.19,1.19,0,0,1,39.6,12.11Zm4-.53a2.65,2.65,0,0,1-.26.75,2.38,2.38,0,0,1-.53.72,2.35,2.35,0,0,1-1.19.61,3.58,3.58,0,0,0-.09-.35L41.42,13l-.06-.13-.07-.13a2.9,2.9,0,0,0-.35-.49,3.08,3.08,0,0,0-.95-.7,3.84,3.84,0,0,0-1.15-.28,4.88,4.88,0,0,0-1.92.31c-.7-.81-1.53-1.57-2.49-2.56h0l-.49-.49c.89-1.4,1.42-3.14,2.11-3.87a1.92,1.92,0,0,1,1.6-.62A1.85,1.85,0,0,1,36.5,5.21a1.75,1.75,0,0,1-1.17-.14,3.48,3.48,0,0,1-1.12-1,2,2,0,0,0,.87,1.43,2.38,2.38,0,0,0,3-.17,2,2,0,0,0,.43-.73c0-.18,0-.28.1-.3s.48.35.58.81a1.13,1.13,0,0,1-.23,1,.82.82,0,0,1-.69.23c-.21-.05-.47-.23-.47-.47A.4.4,0,0,1,38,5.59a.34.34,0,0,1,.37,0,.25.25,0,0,1,.07.26s0,.11-.11.12-.15-.09-.17-.08,0,.09.08.14A.3.3,0,0,0,38.6,6a.37.37,0,0,0,0-.36.46.46,0,0,0-.28-.23.56.56,0,0,0-.68.81.81.81,0,0,0,.6.38,1.19,1.19,0,0,0,.29,0c.47,0,.94.08,1.41.11a4.17,4.17,0,0,1,1.59.47A3.92,3.92,0,0,1,42.9,8.42,3.69,3.69,0,0,1,43.64,10,3.94,3.94,0,0,1,43.6,11.58Z"/></g></g></svg>